<?xml version="1.0" encoding="UTF-8"?>
<svg id="Hinterleger" xmlns="http://www.w3.org/2000/svg" viewBox="0 0 7145.84 2960.19">
  <defs>
    <style>
      .cls-1 {
        fill: #ff5a3d;
      }

      .cls-2 {
        fill: #e05a48;
      }
    </style>
  </defs>
  <circle class="cls-1" cx="720.49" cy="507.83" r="14.5"/>
  <circle class="cls-1" cx="1494.94" cy="1402.22" r="31.5"/>
  <circle class="cls-1" cx="1423.22" cy="1446.05" r="5.5"/>
  <circle class="cls-1" cx="1557.92" cy="1463.55" r="9"/>
  <circle class="cls-1" cx="1490.5" cy="1468.57" r="10"/>
  <circle class="cls-1" cx="1775.83" cy="144.63" r="27.5"/>
  <circle class="cls-1" cx="1829.83" cy="205.43" r="7"/>
  <circle class="cls-1" cx="1805.8" cy="95.32" r="4.5"/>
  <circle class="cls-1" cx="1720.42" cy="90.76" r="7"/>
  <circle class="cls-1" cx="3213.87" cy="26" r="26"/>
  <circle class="cls-1" cx="3315.3" cy="106.14" r="13"/>
  <circle class="cls-1" cx="3251.11" cy="115.86" r="13.5"/>
  <circle class="cls-1" cx="731.13" cy="488.93" r="1"/>
  <circle class="cls-1" cx="715.8" cy="485.52" r="1.5"/>
  <circle class="cls-1" cx="704.24" cy="486.33" r="3"/>
  <circle class="cls-1" cx="3286.08" cy="66.84" r="3.5"/>
  <circle class="cls-1" cx="3276.81" cy="37.24" r="7.5"/>
  <circle class="cls-1" cx="3309.09" cy="67.21" r="4.5"/>
  <circle class="cls-1" cx="3118.87" cy="1234.68" r="26"/>
  <circle class="cls-1" cx="2997.75" cy="1279.87" r="13"/>
  <circle class="cls-1" cx="3022.71" cy="1219.94" r="13.5"/>
  <circle class="cls-1" cx="3046.5" cy="1275.25" r="3.5"/>
  <circle class="cls-1" cx="3076.62" cy="1282.67" r="7.5"/>
  <circle class="cls-1" cx="3034.26" cy="1294.74" r="4.5"/>
  <circle class="cls-1" cx="4058.23" cy="568.91" r="9"/>
  <circle class="cls-1" cx="4059.21" cy="594.51" r="6.5"/>
  <circle class="cls-2" cx="1095.5" cy="620.21" r="318.5"/>
  <circle class="cls-2" cx="2544.44" cy="1221.99" r="318.5"/>
  <circle class="cls-2" cx="2792.16" cy="355.13" r="318.5"/>
  <circle class="cls-2" cx="3696.92" cy="537.98" r="318.5"/>
  <circle class="cls-2" cx="786.08" cy="1328.15" r="318.5"/>
  <path class="cls-1" d="m1486.44,1305.33c-62.37,50.56-136.61,86.72-217.44,103.79-7.45,1.57-14.17,5.5-19.21,11.21-101.23,114.69-252.3,183.31-416.84,173.56-56.95-3.38-111.18-15.88-161.36-36-7.18-2.88-15.08-3.35-22.55-1.34-52.21,14.06-107.53,20.07-164.48,16.69C200.62,1556.41-15.91,1312.6.92,1028.67c16.83-283.93,260.63-500.46,544.57-483.63,61.15,3.62,119.17,17.77,172.4,40.58,1.69.72,3.37,1.45,5.04,2.19,14.53,6.42,31.49,2.4,41.59-9.86,1.22-1.48,2.45-2.96,3.69-4.42,77.04-91.39,185.02-155.18,306.65-176.02,7.62-1.31,14.6-5.04,19.91-10.66,100.97-107.05,246.88-170.29,405.28-160.9,152.53,9.04,285.6,83.58,373.49,194.66,6.74,8.51,16.98,13.46,27.83,13.43s21.32.28,32.07.92c89.62,5.31,172.52,33.23,243.49,77.89,11.53,7.25,26.15,7.3,37.67.03,43.7-27.57,91.75-48.71,142.73-62.18,11.22-2.97,20.25-11.38,24.01-22.36,73.11-213.41,281.52-360.88,517.7-346.88,161.67,9.58,301.5,92.76,388.82,215.04,9.58,13.41,27.13,18.49,42.3,12.06,70.67-29.93,149.15-44.45,230.95-39.6,225.4,13.36,408.32,169.76,465.73,375.72,4.67,16.76,20.94,27.39,38.21,25.35,13.17-1.56,26.65-1.98,40.35-1.16,91.97,5.45,167.9,64.94,198.75,145.76,5.95,15.58,22.02,24.86,38.48,22.15,16.32-2.69,33.19-3.62,50.39-2.61,123.49,7.26,218.98,113.08,213.46,236.65-5.66,126.81-113.93,224.04-240.21,216.56-91.97-5.45-167.9-64.94-198.75-145.76-5.97-15.63-22.1-24.84-38.6-22.13s-33.18,3.6-50.37,2.58c-35.81-2.12-69.19-12.44-98.43-29.02-15.15-8.59-34.23-4.77-45.02,8.9-100.8,127.62-260.27,205.56-434.93,195.21-161.67-9.58-301.5-92.76-388.81-215.03-9.62-13.47-27.23-18.44-42.48-11.99-22.14,9.37-45.06,17.23-68.59,23.45-11.22,2.97-20.27,11.36-24.03,22.34-73.1,213.42-281.52,360.9-517.71,346.9-89.62-5.31-172.52-33.23-243.49-77.89-11.54-7.26-26.17-7.28-37.7-.01-87.86,55.41-193.26,84.85-304.86,78.23-133.54-7.91-252.17-66.04-338.63-154.94-12.72-13.08-33.26-14.38-47.43-2.89Z"/>
</svg>